<?xml version="1.0" encoding="utf-8"?>
<!-- Generator: Adobe Illustrator 22.0.0, SVG Export Plug-In . SVG Version: 6.00 Build 0)  -->
<svg version="1.1" id="Layer_1" xmlns="http://www.w3.org/2000/svg" xmlns:xlink="http://www.w3.org/1999/xlink" x="0px" y="0px"
	 viewBox="0 0 150 62.7" style="enable-background:new 0 0 150 62.7;" xml:space="preserve">
<style type="text/css">
	.st0{fill:#8edef8;}
</style>
<g>
	<path class="st0" d="M112,49.2c-3.4,0-6.9,0.1-10.3,0.1c-2.7,0-5.5,0-8.2,0c-0.9,0-1.8,0.1-2.7,0.2c-0.2,0-0.4,0.1-0.6,0.1
		c-2.7-0.2-5.3,0-8,0.1c-3.5,0.1-7,0.3-10.5,0.4c-1.4,0.1-2.8,0.2-4.3,0.2c-1,0-2-0.3-3,0c-1,0.2-2,0.3-3,0.4
		c-1.6,0.1-3.1,0.2-4.6,0.4c-0.2,0-0.5-0.1-0.8-0.2c-0.6-0.3-1.1-0.4-1.7,0.1c-0.4,0.3-0.8-0.1-1.1-0.3c-0.3-0.2-0.8-0.3-0.9-0.1
		c-0.2,0.4-0.3,0.6-0.7,0.4c-0.6-0.4-1.2-0.4-1.9-0.1c-1.1,0.5-2.3,0.3-3.4,0.2c-0.2,0-0.3-0.5-0.4-0.5c-0.2,0-0.4,0.3-0.7,0.4
		c-0.2,0.1-0.4,0.1-0.6,0.1c-0.8,0.1-1.6,0.3-2.4,0.4c-1.8,0.2-3.5,0.4-5.2,0.7c-1.4,0.2-2.8,0.6-4.2,1c-0.6,0.2-1.1,0.5-1.7,0.6
		c-3,0.6-5.9,1.7-8.7,2.9c-1.4,0.6-2.9,1.2-4.3,1.8c-1.2,0.5-2.3,1.1-3.5,1.7c-0.8,0.4-1.4,0.3-2-0.3c-1.2-1.1-1.7-2.5-1.2-4
		c0.3-1.1,0.7-2.2,1.2-3.2c0.6-1.3,1.2-2.6,1.8-3.8c0.2-0.4,0.3-0.9,0.3-1.4c0.1-0.5-0.2-0.8-0.7-0.8c-0.5,0-1.1,0.1-1.6,0.2
		c-1.5,0.3-3,0.4-4.5,0.5c-1.9,0.1-3.2-0.7-4.1-2.2c-1.1-1.8-1.1-3.7-0.6-5.6c0.2-0.8,0.5-1.7,0.8-2.5c0.5-1.5,1-3,0.5-4.7
		c0-0.1,0.1-0.4,0.2-0.5c0.1-0.1,0.5-0.1,0.5-0.1c0.2,0.6,0.4,1.1,0.6,1.7c0.2,0.5,0.6,0.7,1.1,0.5c0.7-0.2,1.4-0.4,2.2-0.6
		c0.3-0.1,0.6-0.2,0.9-0.4c0.9-0.4,1.4-1,1.7-1.9c0.5-1.6,1.2-3.2,1.7-4.7c0-0.1,0.1-0.3,0.1-0.4c0.2-1.1-0.2-1.6-1.3-1.3
		c-0.8,0.2-1.5,0.6-2.3,0.9c-0.4,0.1-0.7,0.3-1.1,0.4c-0.4,0.2-0.8,0.7-1.3,0.4c-0.7-0.4-1.1-1.1-1.1-1.8c0-1.6-0.3-3.2,0.2-4.8
		c0.3-1,0.3-2.1,0.5-3.2C7,16,7.4,15.4,8.3,15.2c0.4-0.1,0.8-0.3,1.2-0.3c1-0.1,1.6-0.5,1.7-1.6c0-0.4,0.4-0.5,0.8-0.5
		c0.1,0,0.1,0,0.2,0c2.5,0.6,4.9-0.1,7.3-0.6c1.7-0.3,3.3-0.8,5-1.1c0.5-0.1,1.1-0.1,1.6-0.2c0.6-0.1,1.2-0.2,1.8-0.2
		c0.3,0,0.7-0.2,1-0.2c2.5,0.1,4.9-0.5,7.3-0.8c1.6-0.2,3.1-0.5,4.7-0.7c2.3-0.3,4.6-0.6,6.9-1c2.2-0.3,4.4-0.3,6.6-0.4
		c0.5,0,1.1-0.1,1.6-0.2c0.1,0,0.3-0.1,0.4-0.1c1.8-0.1,3.5-0.3,5.3-0.4c1.6-0.1,3.3-0.1,4.9-0.5c0.3-0.1,0.6-0.2,0.8-0.1
		c1.7,0.4,3.4-0.1,5.1-0.2c1.6-0.1,3.1-0.2,4.7,0c0.3,0,0.7,0,1-0.1c2-0.3,3.9-0.4,5.9-0.4c1.5,0,3-0.2,4.5-0.2
		c1.9-0.1,3.8-0.1,5.8-0.2c1,0,1.9-0.2,2.9-0.2c2.7-0.2,5.3-0.3,8-0.5c0.7,0,1.3-0.3,2-0.3c1.8-0.2,3.6-0.5,5.5-0.9
		c1.3-0.3,2.7-0.3,4-0.4c0.5,0,1-0.1,1.5-0.4c0.7-0.3,1.6-0.2,2.4-0.4c0.4-0.1,0.9,0.4,1.3-0.1c0.3-0.4,0.6,0.4,1,0.1
		c0.3-0.2,0.9,0.3,1.2-0.3c0.1-0.1,0.4-0.1,0.6-0.1c1.9,0.1,3.8-0.2,5.7-0.1c1.3,0,2.6-0.2,3.9-0.1c0.3,0,0.7-0.5,1.1,0
		c-0.3,0.3-0.4,0.7-0.8,0.9c-0.7,0.3-1.4,0.3-2,0.7c-0.2,0.1-0.4,0.2-0.6,0.2c-1.2,0.1-1.7,1-2.1,1.9c-0.1,0.2,0.1,0.6,0.4,0.6
		c0.3,0,0.7,0.1,1,0c1-0.1,2.1-0.1,3.1-0.3c1.2-0.2,2.4-0.3,3.7-0.4c0.8-0.1,1.6-0.4,2.3-0.7c0.5-0.2,0.8-0.5,0.9-1
		c0.1-0.3,0.2-0.6,0.4-0.9c0.6-0.8,1.2-0.7,1.5,0.2c0.2,0.9,0.9,1.7,1.3,2.5c0,0.1,0,0.2,0,0.4c-0.1,0-0.2-0.1-0.3-0.1
		c-0.2-0.2-0.4-0.4-0.6-0.6c-0.1-0.1-0.2,0-0.4,0c0,0-0.1,0.1,0,0.2c0.6,0.6,0.2,1.3,0,1.9c-0.1,0.3-0.2,0.5-0.3,0.7
		c-0.3,0.6-0.2,1.3-0.7,1.8c0.1,0.9,0.1,1.9,0.4,2.8c0.2,0.6,0.8,1.1,1,1.7c0.2,0.5-0.1,1.2,0,1.8c0,0.2,0.2,0.5,0.3,0.7
		c0.4,0.8,0.7,1.6,1.1,2.4c0.4,0.8,0.6,1.6,1,2.3c0.4,0.9,0.5,1.9,0.7,2.9c0.1,0.5,0.4,1,0.1,1.3c-0.5,0.5-1.1,1.1-1.9,1.1
		c-0.3,0-0.7,0-1,0c-0.4,0-0.8,0-1.2,0c-0.5,0-1-0.1-1.3,0.3c-0.3,0.6-0.8,1.1-0.6,1.8c0.2,0.7,0.2,1.5,0.3,2.2
		c0.1,0.7-0.2,1.1-1,1.2c-1.6,0.2-3.3,0.3-4.9,0.4c-0.7,0.1-1.4,0-2.1,0.1c-0.3,0-0.7,0.1-1,0.3c-0.5,0.4-0.9,0.8-1.3,1.2
		c0.3,0.7,0.9,0.7,1.5,0.8c0.7,0,1,0.4,1.3,0.9c1.9,3.2,3.4,6.6,4.1,10.2c0.1,0.4,0,0.6-0.2,0.9c-1,1-2.1,1.7-3.5,1.9
		c-0.9,0.1-1.9,0.3-2.9,0.3C124.8,49.3,118.4,49.3,112,49.2C112,49.3,112,49.3,112,49.2z"/>
</g>
</svg>
